<?xml version="1.0" encoding="UTF-8" standalone="no"?>
<svg
   viewBox="0 0 384 512"
   version="1.1"
   id="svg4"
   sodipodi:docname="faviocn.svg"
   inkscape:version="1.1.1 (3bf5ae0d25, 2021-09-20)"
   xmlns:inkscape="http://www.inkscape.org/namespaces/inkscape"
   xmlns:sodipodi="http://sodipodi.sourceforge.net/DTD/sodipodi-0.dtd"
   xmlns="http://www.w3.org/2000/svg"
   xmlns:svg="http://www.w3.org/2000/svg">
  <defs
     id="defs8" />
  <sodipodi:namedview
     id="namedview6"
     pagecolor="#505050"
     bordercolor="#eeeeee"
     borderopacity="1"
     inkscape:pageshadow="0"
     inkscape:pageopacity="0"
     inkscape:pagecheckerboard="0"
     showgrid="false"
     inkscape:zoom="1.2042912"
     inkscape:cx="118.32686"
     inkscape:cy="248.694"
     inkscape:window-width="1920"
     inkscape:window-height="1057"
     inkscape:window-x="-8"
     inkscape:window-y="-8"
     inkscape:window-maximized="1"
     inkscape:current-layer="svg4" />
  <!--! Font Awesome Pro 6.1.1 by @fontawesome - https://fontawesome.com License - https://fontawesome.com/license (Commercial License) Copyright 2022 Fonticons, Inc. -->
  <path
     d="m 162.1,257.8 c -7.812,-7.812 -20.47,-7.812 -28.28,0 l -48,48 c -7.812,7.812 -7.812,20.5 0,28.31 l 48,48 c 3.98,3.99 9.08,5.89 14.18,5.89 5.1,0 10.23,-1.938 14.14,-5.844 7.812,-7.812 7.812,-20.5 0,-28.31 L 128.3,320 162.16,286.16 C 169.1,278.3 169.1,265.7 162.1,257.8 Z M 365.3,93.38 290.67,18.74 C 278.6,6.742 262.3,0 245.4,0 H 64 C 28.65,0 0,28.65 0,64 l 0.0065,384 c 0,35.34 28.65,64 64,64 H 320 c 35.2,0 64,-28.8 64,-64 V 138.6 c 0,-16.9 -6.7,-33.2 -18.7,-45.22 z M 336,448 c 0,8.836 -7.164,16 -16,16 H 64.02 c -8.838,0 -16,-7.164 -16,-16 L 48,64.13 c 0,-8.836 7.164,-16 16,-16 H 224 V 128 c 0,17.67 14.33,32 32,32 h 79.1 V 448 Z M 221.9,257.8 c -7.812,7.812 -7.812,20.5 0,28.31 l 33.8,33.89 -33.86,33.84 c -7.812,7.812 -7.812,20.5 0,28.31 3.96,3.95 9.06,5.85 14.16,5.85 5.1,0 10.23,-1.938 14.14,-5.844 l 48,-48 c 7.812,-7.812 7.812,-20.5 0,-28.31 l -48,-48 C 242.3,250 229.7,250 221.9,257.8 Z"
     id="path2"
     style="fill:#2a7fff" />
</svg>
